<svg width="1200" height="630" viewBox="0 0 1200 630" fill="none" xmlns="http://www.w3.org/2000/svg">
  <defs>
    <linearGradient id="bg" x1="0" y1="0" x2="1200" y2="630" gradientUnits="userSpaceOnUse">
      <stop offset="0%" stop-color="#fafafa"/>
      <stop offset="100%" stop-color="#f0f0f0"/>
    </linearGradient>
    <linearGradient id="accent" x1="0" y1="0" x2="200" y2="200" gradientUnits="userSpaceOnUse">
      <stop offset="0%" stop-color="#2c3e34" stop-opacity="0.08"/>
      <stop offset="100%" stop-color="#2c3e34" stop-opacity="0.02"/>
    </linearGradient>
  </defs>
  
  <!-- Background -->
  <rect width="1200" height="630" fill="url(#bg)"/>
  
  <!-- Subtle grid pattern (chaos side) -->
  <g opacity="0.04" stroke="#2c3e34" stroke-width="0.5">
    <line x1="80" y1="80" x2="120" y2="140"/>
    <line x1="120" y1="140" x2="60" y2="180"/>
    <line x1="60" y1="180" x2="140" y2="220"/>
    <line x1="140" y1="220" x2="90" y2="280"/>
    <line x1="90" y1="280" x2="150" y2="340"/>
    <line x1="150" y1="340" x2="70" y2="380"/>
    <line x1="70" y1="380" x2="130" y2="440"/>
    <line x1="200" y1="100" x2="240" y2="160"/>
    <line x1="240" y1="160" x2="180" y2="200"/>
    <line x1="180" y1="200" x2="260" y2="250"/>
    <line x1="260" y1="250" x2="210" y2="310"/>
    <line x1="210" y1="310" x2="270" y2="370"/>
    <line x1="320" y1="120" x2="340" y2="180"/>
    <line x1="340" y1="180" x2="300" y2="240"/>
    <line x1="300" y1="240" x2="360" y2="300"/>
  </g>
  
  <!-- Subtle grid pattern (order side) -->
  <g opacity="0.06" stroke="#2c3e34" stroke-width="0.5">
    <line x1="900" y1="100" x2="900" y2="530"/>
    <line x1="960" y1="100" x2="960" y2="530"/>
    <line x1="1020" y1="100" x2="1020" y2="530"/>
    <line x1="1080" y1="100" x2="1080" y2="530"/>
    <line x1="850" y1="160" x2="1140" y2="160"/>
    <line x1="850" y1="230" x2="1140" y2="230"/>
    <line x1="850" y1="300" x2="1140" y2="300"/>
    <line x1="850" y1="370" x2="1140" y2="370"/>
    <line x1="850" y1="440" x2="1140" y2="440"/>
  </g>
  
  <!-- Dots (chaos) -->
  <g fill="#2c3e34" opacity="0.12">
    <circle cx="95" cy="110" r="2.5"/>
    <circle cx="130" cy="155" r="2"/>
    <circle cx="75" cy="195" r="2.5"/>
    <circle cx="155" cy="240" r="2"/>
    <circle cx="105" cy="300" r="2.5"/>
    <circle cx="160" cy="355" r="2"/>
    <circle cx="85" cy="400" r="2.5"/>
    <circle cx="220" cy="130" r="2"/>
    <circle cx="250" cy="175" r="2.5"/>
    <circle cx="195" cy="215" r="2"/>
    <circle cx="275" cy="265" r="2.5"/>
    <circle cx="225" cy="325" r="2"/>
    <circle cx="335" cy="145" r="2.5"/>
    <circle cx="310" cy="260" r="2"/>
    <circle cx="370" cy="315" r="2.5"/>
  </g>
  
  <!-- Dots (order) -->
  <g fill="#2c3e34" opacity="0.15">
    <circle cx="900" cy="160" r="2.5"/>
    <circle cx="960" cy="160" r="2.5"/>
    <circle cx="1020" cy="160" r="2.5"/>
    <circle cx="1080" cy="160" r="2.5"/>
    <circle cx="900" cy="230" r="2.5"/>
    <circle cx="960" cy="230" r="2.5"/>
    <circle cx="1020" cy="230" r="2.5"/>
    <circle cx="1080" cy="230" r="2.5"/>
    <circle cx="900" cy="300" r="2.5"/>
    <circle cx="960" cy="300" r="2.5"/>
    <circle cx="1020" cy="300" r="2.5"/>
    <circle cx="1080" cy="300" r="2.5"/>
    <circle cx="900" cy="370" r="2.5"/>
    <circle cx="960" cy="370" r="2.5"/>
    <circle cx="1020" cy="370" r="2.5"/>
    <circle cx="1080" cy="370" r="2.5"/>
    <circle cx="900" cy="440" r="2.5"/>
    <circle cx="960" cy="440" r="2.5"/>
    <circle cx="1020" cy="440" r="2.5"/>
    <circle cx="1080" cy="440" r="2.5"/>
  </g>
  
  <!-- Center divider line -->
  <line x1="600" y1="80" x2="600" y2="550" stroke="#2c3e34" stroke-width="1" opacity="0.06"/>
  
  <!-- Brand dot -->
  <circle cx="600" cy="195" r="18" stroke="#2c3e34" stroke-width="2.5" fill="none" opacity="0.9"/>
  <circle cx="600" cy="195" r="3" fill="#2c3e34" opacity="0.9"/>
  
  <!-- Title -->
  <text x="600" y="275" text-anchor="middle" font-family="system-ui, -apple-system, 'Segoe UI', sans-serif" font-size="56" font-weight="600" fill="#1a1a1a" letter-spacing="-2">Second Opinion AI</text>
  
  <!-- Subtitle -->
  <text x="600" y="325" text-anchor="middle" font-family="system-ui, -apple-system, 'Segoe UI', sans-serif" font-size="22" font-weight="300" fill="#666666">Structured clinical reasoning when medical opinions conflict.</text>
  
  <!-- Tech stack pills -->
  <g font-family="ui-monospace, 'SF Mono', monospace" font-size="11" font-weight="500">
    <rect x="310" y="370" width="72" height="28" rx="14" fill="#2c3e34" opacity="0.08"/>
    <text x="346" y="389" text-anchor="middle" fill="#2c3e34" opacity="0.7">Next.js</text>
    
    <rect x="394" y="370" width="60" height="28" rx="14" fill="#2c3e34" opacity="0.08"/>
    <text x="424" y="389" text-anchor="middle" fill="#2c3e34" opacity="0.7">React</text>
    
    <rect x="466" y="370" width="80" height="28" rx="14" fill="#2c3e34" opacity="0.08"/>
    <text x="506" y="389" text-anchor="middle" fill="#2c3e34" opacity="0.7">GPT-4o mini</text>
    
    <rect x="558" y="370" width="84" height="28" rx="14" fill="#2c3e34" opacity="0.08"/>
    <text x="600" y="389" text-anchor="middle" fill="#2c3e34" opacity="0.7">Tailwind CSS</text>
    
    <rect x="654" y="370" width="84" height="28" rx="14" fill="#2c3e34" opacity="0.08"/>
    <text x="696" y="389" text-anchor="middle" fill="#2c3e34" opacity="0.7">TypeScript</text>
    
    <rect x="750" y="370" width="60" height="28" rx="14" fill="#2c3e34" opacity="0.08"/>
    <text x="780" y="389" text-anchor="middle" fill="#2c3e34" opacity="0.7">Vercel</text>
  </g>
  
  <!-- Feature labels -->
  <g font-family="system-ui, -apple-system, 'Segoe UI', sans-serif" font-size="13" fill="#999999" font-weight="400">
    <text x="420" y="450" text-anchor="middle">AI-Powered Analysis</text>
    <text x="600" y="450" text-anchor="middle">Multi-Step Intake</text>
    <text x="780" y="450" text-anchor="middle">Clinical Briefs</text>
  </g>
  
  <!-- Thin accent line bottom -->
  <rect x="560" y="490" width="80" height="1.5" rx="0.75" fill="#2c3e34" opacity="0.25"/>
  
  <!-- Author -->
  <text x="600" y="530" text-anchor="middle" font-family="system-ui, -apple-system, 'Segoe UI', sans-serif" font-size="13" fill="#aaaaaa" font-weight="400">Built by mksvlbv · Portfolio MVP</text>
</svg>
